<svg xmlns="http://www.w3.org/2000/svg" version="1.0" width="300.000000pt" height="300.000000pt" viewBox="0 0 300.000000 300.000000" preserveAspectRatio="xMidYMid meet">
<metadata>
Created by potrace 1.10, written by Peter Selinger 2001-2011
</metadata>
<g transform="translate(0.000000,300.000000) scale(0.100000,-0.100000)" fill="#000000" stroke="none">
<path d="M1407 2971 c-62 -13 -114 -26 -117 -30 -3 -3 -18 -13 -34 -21 -52 -26 -137 -112 -159 -159 -11 -25 -24 -48 -29 -51 -13 -10 -39 -203 -34 -250 3 -25 8 -88 12 -140 3 -52 12 -107 19 -121 13 -23 11 -28 -18 -57 -18 -18 -56 -50 -84 -72 -54 -41 -62 -60 -54 -135 3 -27 -36 -110 -74 -160 -31 -41 -91 -100 -103 -100 -4 -1 -28 -9 -54 -19 -52 -20 -60 -34 -57 -98 2 -41 -16 -92 -46 -128 -7 -8 -15 -43 -18 -77 -4 -34 -19 -91 -33 -126 -40 -98 -14 -129 52 -63 18 18 35 32 37 30 2 -2 15 8 29 23 37 41 86 83 98 83 5 0 10 5 10 11 0 16 107 59 148 59 21 0 43 -5 50 -12 7 -7 12 -9 12 -4 0 4 12 -6 26 -23 14 -17 29 -31 32 -31 12 0 57 44 76 73 27 43 33 23 8 -27 -24 -47 -84 -116 -101 -116 -6 0 -11 -4 -11 -8 0 -10 -184 -111 -240 -133 -19 -7 -39 -17 -45 -21 -5 -5 -40 -27 -76 -51 -72 -46 -112 -88 -153 -158 -22 -40 -43 -109 -31 -109 2 0 17 29 33 64 56 120 130 181 352 289 74 37 161 87 192 112 93 73 141 174 154 325 11 125 25 117 18 -10 -7 -132 -23 -186 -71 -252 -46 -64 -99 -100 -293 -203 -179 -94 -200 -109 -200 -136 0 -10 -8 -37 -17 -60 -9 -23 -22 -67 -29 -98 l-13 -56 3 85 c2 47 7 94 10 105 14 39 -75 -71 -100 -123 -14 -30 -24 -56 -22 -58 3 -2 21 23 42 56 21 33 39 60 41 60 1 0 3 -23 4 -52 1 -28 6 -57 12 -64 16 -20 37 -6 44 29 3 18 15 64 27 102 12 39 23 76 24 83 2 7 21 20 41 29 21 8 49 23 63 33 30 21 199 110 208 110 4 0 1 -4 -7 -9 -12 -8 -13 -14 -2 -37 14 -31 4 -42 -39 -45 -14 -1 -29 -3 -35 -4 -5 -2 -16 -3 -22 -4 -24 -2 -13 -39 18 -63 61 -46 99 -92 99 -121 0 -35 23 -44 55 -23 31 20 44 20 86 -1 19 -10 65 -19 103 -21 56 -4 77 0 117 19 47 21 58 40 41 65 -4 6 -23 9 -42 8 -42 -4 -111 19 -136 47 -26 29 -19 90 18 168 33 70 123 191 141 191 5 0 7 3 4 7 -6 6 22 35 71 75 12 10 33 20 47 24 14 3 28 10 31 15 3 5 17 9 32 9 41 1 162 79 183 118 9 19 24 41 33 51 20 22 20 40 -1 63 -15 17 -15 18 10 18 17 0 34 11 49 30 22 28 28 30 66 24 78 -12 123 -68 124 -154 0 -52 -20 -148 -34 -165 -4 -5 -8 -15 -8 -22 0 -15 -59 -145 -69 -153 -3 -3 -15 -23 -26 -45 -30 -61 -154 -241 -220 -320 -14 -16 -34 -41 -45 -55 -33 -39 -92 -110 -122 -144 -138 -155 -196 -299 -185 -455 3 -51 13 -96 28 -127 12 -27 23 -53 23 -58 1 -5 10 -12 21 -16 19 -7 18 -3 -8 50 -43 87 -55 185 -33 281 17 76 58 168 101 224 12 17 82 100 155 185 141 165 285 372 350 501 141 280 122 466 -50 499 -93 19 -109 28 -116 69 -3 20 -13 62 -21 93 -18 66 -12 102 20 123 50 32 209 -38 272 -121 107 -140 131 -354 64 -556 -71 -216 -198 -398 -502 -718 -114 -119 -145 -159 -177 -225 -51 -103 -68 -204 -53 -306 19 -119 32 -105 26 28 -4 79 -2 137 7 171 14 59 78 173 124 218 104 105 299 322 356 398 24 31 45 55 47 52 7 -6 -109 -174 -149 -218 -19 -20 -52 -59 -74 -85 -52 -65 -77 -93 -91 -109 -16 -15 -17 -38 -2 -29 18 12 246 283 292 348 104 147 227 385 286 551 30 83 55 200 66 296 5 50 -7 190 -21 232 -20 65 121 -54 164 -137 37 -72 42 -188 13 -285 -64 -211 -266 -532 -453 -722 -46 -46 -143 -133 -215 -193 -126 -103 -155 -133 -115 -118 18 7 92 63 131 100 13 12 37 33 53 45 102 77 338 326 338 356 0 5 9 17 21 28 12 10 30 37 41 59 12 22 24 42 27 45 13 10 68 107 121 217 43 87 59 111 72 107 24 -7 42 33 63 136 21 101 16 321 -7 383 -25 65 -88 152 -129 179 l-40 26 55 -5 c44 -4 66 0 118 22 60 27 128 85 128 111 0 7 8 10 20 7 11 -3 20 -10 20 -15 0 -5 4 -7 9 -4 5 4 38 -1 73 -10 90 -23 138 -28 138 -15 0 6 -7 11 -15 11 -9 0 -62 11 -118 25 -164 41 -211 68 -345 198 -64 63 -133 123 -152 133 -27 14 -57 19 -135 19 -154 0 -194 -25 -403 -258 -25 -27 -60 -54 -80 -61 -57 -20 -102 -27 -102 -16 0 6 60 70 133 143 194 193 309 254 469 245 117 -6 146 -25 311 -196 108 -112 238 -182 394 -210 62 -11 62 -1 1 17 -24 7 -52 17 -63 21 -11 5 -53 20 -92 35 -40 15 -73 30 -73 34 0 4 -18 15 -40 25 -24 11 -74 55 -132 117 -51 56 -113 113 -138 127 -25 14 -48 30 -51 34 -8 13 -101 25 -156 21 -88 -6 -133 -14 -133 -24 0 -5 -5 -9 -11 -9 -19 0 -110 -49 -150 -81 -22 -17 -39 -26 -39 -20 0 6 -9 11 -20 11 -29 0 -112 -30 -135 -48 -11 -9 -6 -1 10 18 36 41 67 69 77 70 4 0 27 13 50 29 24 16 46 27 49 25 4 -2 9 3 13 11 3 8 14 15 25 15 11 0 23 5 26 10 4 6 11 8 16 5 5 -4 9 -2 9 2 0 5 10 9 22 10 11 1 24 6 27 11 3 5 17 12 31 15 14 3 34 13 45 22 20 15 20 15 0 31 -15 12 -33 14 -75 9 -86 -11 -233 -45 -249 -58 -8 -7 -16 -11 -18 -9 -6 5 -143 -62 -143 -70 0 -4 -6 -8 -12 -8 -20 0 -121 -99 -157 -153 l-33 -49 -25 37 c-35 52 -83 95 -104 95 -27 0 -24 11 24 77 53 71 89 102 147 127 25 10 54 22 65 27 35 16 68 21 190 26 138 6 438 -14 429 -29 -4 -6 2 -8 14 -4 11 4 41 2 66 -5 34 -8 50 -8 59 0 8 6 16 8 19 5 3 -3 5 3 5 13 -3 27 -28 42 -72 43 -22 1 -60 5 -85 11 -25 5 -66 12 -91 15 -49 6 -59 7 -99 17 -59 13 -211 30 -278 31 -42 1 -121 -9 -185 -23z m533 -41 c129 -18 242 -35 250 -38 43 -15 -36 -11 -231 13 -228 28 -314 30 -442 9 -160 -26 -288 -116 -353 -252 -36 -73 -45 -203 -19 -300 l16 -64 -26 -43 c-25 -44 -42 -61 -51 -52 -3 2 -11 71 -19 153 -16 165 -10 244 26 338 51 138 180 235 352 266 85 15 247 5 497 -30z m75 -98 c-6 -5 -37 -16 -70 -26 -99 -30 -225 -98 -301 -164 -40 -34 -93 -112 -114 -168 -23 -62 -21 -83 4 -35 27 51 77 101 125 125 52 26 101 40 101 29 0 -5 -25 -30 -55 -56 -75 -66 -197 -206 -190 -217 8 -14 80 -12 127 2 30 9 57 31 107 86 36 41 86 96 111 123 l45 48 63 -10 c88 -13 185 11 221 55 13 15 51 23 51 11 0 -3 -9 -23 -19 -44 -35 -67 -136 -139 -201 -142 -18 -1 -14 -4 15 -10 99 -24 118 -33 174 -83 116 -103 290 -126 381 -50 37 32 40 17 3 -18 -80 -74 -175 -91 -332 -59 -131 26 -197 27 -98 1 237 -63 337 -197 337 -449 0 -85 -13 -180 -36 -260 -22 -75 -28 -58 -8 25 10 46 15 98 12 155 -7 149 -69 245 -204 312 -28 15 -54 24 -57 21 -2 -3 -1 -22 4 -42 5 -20 12 -89 15 -152 7 -120 -3 -211 -33 -305 -20 -65 -37 -84 -27 -30 5 22 8 83 8 135 -2 226 -109 377 -298 417 -112 23 -131 15 -149 -66 -12 -52 -15 -56 -72 -88 -55 -31 -65 -33 -121 -28 -70 7 -78 2 -88 -64 -12 -76 -15 -79 -100 -73 l-76 5 -72 -71 -72 -70 13 -40 c13 -38 12 -44 -10 -86 -13 -25 -44 -73 -68 -106 l-44 -61 -13 31 c-16 37 -48 50 -123 50 -73 0 -106 -20 -299 -188 -39 -34 -72 -60 -72 -57 0 3 11 27 24 53 30 59 56 155 49 181 -3 12 6 34 22 55 38 50 53 100 45 147 -8 45 -11 42 55 59 39 11 62 26 105 71 74 76 113 155 118 241 l4 67 74 57 c101 77 158 142 175 201 9 31 14 99 14 195 0 82 2 148 5 148 3 0 22 -17 42 -37 38 -39 77 -113 78 -148 0 -11 11 5 24 36 58 143 188 250 376 310 115 37 319 72 295 51z m135 -202 c0 -7 -26 -22 -42 -24 -3 -1 -10 -4 -14 -8 -4 -5 -36 -8 -71 -8 -60 0 -78 10 -50 27 28 17 177 28 177 13z m-971 -150 c1 -61 -2 -110 -7 -110 -10 0 -9 -2 -18 102 -4 42 -3 85 1 95 5 10 7 25 6 33 -1 12 0 12 7 2 5 -7 10 -62 11 -122z m1204 28 c94 -94 174 -158 197 -158 17 0 11 -14 -13 -31 -22 -16 -75 -34 -90 -31 -4 1 -32 3 -62 3 -30 1 -55 6 -55 11 0 5 -4 7 -8 4 -5 -3 -21 2 -36 10 -16 7 -33 14 -38 14 -5 0 -32 21 -59 48 -28 26 -65 54 -82 63 -29 16 -30 17 -9 23 22 7 104 87 111 109 6 18 22 37 33 37 5 0 55 -46 111 -102z m-653 -593 c0 -3 -11 -27 -25 -54 -46 -93 -154 -161 -253 -161 l-33 0 19 25 c11 14 23 45 26 69 9 60 25 71 78 57 39 -9 48 -8 96 16 29 15 57 32 63 40 11 13 29 18 29 8z m30 -154 c5 -11 21 -21 35 -23 24 -3 25 -4 10 -25 -12 -17 -26 -23 -55 -23 -52 0 -57 -13 -18 -44 l33 -25 -23 -23 c-20 -20 -32 -23 -105 -23 -52 0 -101 7 -133 18 -52 18 -101 58 -90 75 3 5 31 12 63 14 112 11 219 85 245 170 l13 43 7 -57 c4 -32 12 -67 18 -77z m-392 -37 c18 -5 22 -13 22 -46 0 -49 28 -77 109 -107 63 -23 168 -28 202 -11 29 16 24 -8 -8 -37 -32 -28 -122 -72 -203 -98 -44 -14 -68 -32 -123 -89 -118 -122 -207 -276 -207 -358 0 -46 64 -104 125 -113 24 -4 56 -4 70 -1 39 10 29 -10 -13 -27 -87 -35 -174 -30 -251 15 l-34 19 -28 -33 -28 -33 -1 37 c0 44 -40 96 -101 130 -21 12 -39 24 -39 27 0 3 20 7 43 8 24 1 61 9 83 18 l39 16 -27 20 c-16 12 -28 24 -28 29 0 4 23 11 52 14 28 4 63 13 78 21 90 46 190 241 190 368 0 43 -5 55 -35 88 -42 46 -44 67 -10 108 30 35 74 48 123 35z m-115 -177 c29 -44 3 -173 -55 -276 -52 -93 -111 -141 -173 -140 -22 0 -33 3 -25 6 8 3 26 17 39 30 14 12 31 23 38 23 20 0 96 111 115 169 10 30 18 75 18 101 0 57 10 110 20 110 4 0 15 -11 23 -23z"/>
<path d="M1159 1998 c-43 -55 -75 -116 -64 -126 6 -7 62 45 77 71 12 22 37 107 32 107 -2 0 -22 -24 -45 -52z"/>








</g>
</svg>
