<svg xmlns="http://www.w3.org/2000/svg" width="730" height="730" viewBox="0 0 730 730" version="1.1">
	<path d="M 0 364.978 L 0 729.956 365.250 729.728 L 730.500 729.500 730.751 364.750 L 731.003 -0 365.501 -0 L 0 0 0 364.978 M 0.495 365.500 C 0.495 566.250, 0.610 648.524, 0.750 548.331 C 0.890 448.139, 0.890 283.889, 0.750 183.331 C 0.610 82.774, 0.495 164.750, 0.495 365.500 M 382 9.603 C 376.225 10.371, 370.600 11.416, 369.500 11.926 C 368.400 12.435, 363.225 14.035, 358 15.481 C 331.861 22.716, 308.070 42.807, 296.592 67.339 C 285.487 91.074, 282.793 113.919, 286.490 153 C 289.548 185.324, 291.037 194, 293.524 194 C 295.469 194, 303.454 183.751, 306.525 177.312 C 309.388 171.311, 309.575 168.009, 307.508 160.031 C 301.485 136.789, 300.255 116.196, 304.007 101.410 C 306.185 92.826, 312.126 78.098, 315.127 73.846 C 316.157 72.386, 317 70.861, 317 70.457 C 317 68.890, 328.440 54.895, 334.315 49.276 C 348.643 35.572, 370.148 25.351, 394.929 20.467 C 414.077 16.694, 465.846 16.673, 489 20.430 C 494.852 21.379, 554.800 28.317, 557.907 28.404 C 559.780 28.457, 561.474 28.031, 561.671 27.457 C 561.894 26.806, 554.784 25.545, 542.764 24.103 C 532.169 22.831, 521.475 21.377, 519 20.871 C 516.525 20.364, 502.428 18.166, 487.673 15.986 C 472.918 13.806, 460.499 11.809, 460.076 11.547 C 459.653 11.286, 452.726 10.381, 444.682 9.536 C 426.836 7.662, 396.345 7.694, 382 9.603 M 508.500 40.660 C 479.440 43.014, 440.820 53.079, 419.211 63.929 C 397.132 75.015, 377.102 91.516, 366.139 107.650 C 360.361 116.154, 354.480 127.848, 352.920 133.936 C 352.201 136.742, 351.194 138.898, 350.683 138.728 C 350.171 138.557, 348.781 135.061, 347.593 130.959 C 344.003 118.564, 338.585 109.549, 329.109 100.202 C 324.482 95.638, 320.358 92.263, 319.945 92.702 C 319.531 93.141, 319.573 95.750, 320.037 98.500 C 321.243 105.645, 321.192 142.989, 319.962 153.026 C 318.460 165.295, 315.145 178.538, 311.708 186 C 306.633 197.018, 284.090 218.159, 258.710 235.702 L 254.078 238.904 254.679 248.773 C 255.488 262.047, 253.461 270.938, 246.456 284.848 C 238.222 301.198, 225.659 316.770, 214.504 324.453 C 210.342 327.319, 198.497 331.983, 186.137 335.623 C 185.207 335.897, 185.006 336.737, 185.506 338.262 C 186.847 342.357, 187.613 354.440, 186.811 358.856 C 185.682 365.076, 180.675 374.718, 175.006 381.588 L 170.127 387.500 170.107 395.189 C 170.075 408.078, 165.004 426.145, 156.930 442.139 C 155.246 445.474, 154.112 448.445, 154.409 448.742 C 154.706 449.040, 157.010 447.531, 159.529 445.391 C 171.925 434.858, 176.673 430.872, 185.611 423.500 C 190.945 419.100, 197.603 413.605, 200.405 411.288 C 208.779 404.365, 220.983 395.895, 225.397 393.943 C 236.326 389.108, 253.415 389.471, 263.954 394.762 C 268.496 397.042, 269.928 398.457, 272.524 403.226 L 275.641 408.952 279.126 405.226 C 291.135 392.388, 305.763 368.313, 306.713 359.823 C 307.036 356.941, 306.483 353.385, 305.056 349.154 L 302.914 342.809 304.984 338.534 C 307.197 333.961, 321.898 319.126, 331.014 312.266 C 339.273 306.050, 348.045 304.700, 364.199 307.159 C 370.622 308.136, 372.181 308.096, 373.611 306.915 C 376.403 304.610, 378.712 298.133, 380.467 287.680 C 382.514 275.497, 382.610 275.253, 386.072 273.463 C 389.925 271.470, 394.031 271.624, 402.813 274.088 L 410.253 276.176 416.283 273.977 C 423.352 271.400, 440.460 261.809, 443.862 258.517 C 445.685 256.752, 446.651 253.895, 448.098 245.981 C 451.298 228.487, 453.629 226.603, 470.888 227.570 C 484.635 228.340, 494.365 230.936, 506.520 237.076 C 524.498 246.156, 537.109 258.564, 545.374 275.305 C 553.559 291.881, 557.061 308.545, 557.054 330.879 C 557.051 343.426, 555.615 363.204, 554.421 367.166 C 554.145 368.082, 554.382 369.118, 554.949 369.468 C 556.229 370.259, 560.030 361.814, 563.356 350.790 C 571.084 325.172, 572.596 290.684, 567.547 255.184 C 566.036 244.560, 565.019 235.647, 565.288 235.378 C 566.294 234.373, 581.817 241.143, 589.877 246.104 C 608.316 257.451, 620.022 273.416, 626.223 295.671 C 628.156 302.612, 628.394 305.825, 628.317 324 C 628.240 341.864, 627.910 345.979, 625.746 356 C 624.381 362.325, 623.403 367.661, 623.573 367.858 C 625.069 369.589, 632.124 342.433, 634.692 325.058 C 636.991 309.505, 636.988 280.922, 634.688 268.276 C 629.343 238.906, 616.854 218.271, 596.500 205.182 C 585.664 198.213, 569.600 191.126, 557.500 187.976 C 539.829 183.376, 539.089 182.931, 550 183.464 C 555.225 183.719, 567.600 185.597, 577.500 187.637 C 593.045 190.840, 597.409 191.354, 609.500 191.410 C 625.641 191.483, 630.627 190.365, 643.841 183.704 C 649.403 180.901, 653.817 177.771, 657.091 174.310 C 662.236 168.870, 663.775 165.454, 659.750 168.406 C 652.284 173.883, 648.074 176.031, 641.142 177.901 C 627.596 181.556, 613.658 180.438, 593.992 174.117 C 581.479 170.095, 574.506 165.750, 563.542 155.144 C 551.008 143.018, 547.865 141.617, 522.671 136.913 C 519.465 136.315, 517.017 135.650, 517.232 135.435 C 517.446 135.220, 521.622 133.886, 526.511 132.469 C 537.536 129.274, 548.052 122.884, 556.933 113.983 C 567.452 103.441, 574.534 90.218, 570.895 87.914 C 567.808 85.960, 564.885 87.140, 558.513 92.915 C 553.627 97.342, 549.912 99.657, 543.743 102.115 L 535.500 105.399 517.500 105.362 C 507.069 105.341, 497.825 104.843, 495.517 104.179 L 491.533 103.032 480.517 114.282 C 474.457 120.469, 463.926 132.158, 457.113 140.257 C 446.282 153.134, 439.797 159.691, 435.215 162.401 C 429.352 165.869, 402.730 169.996, 399.023 168.012 C 396.563 166.696, 396.417 163.305, 398.677 159.973 C 403.184 153.330, 418.980 136.293, 436.535 119.144 C 447.241 108.684, 456 99.873, 456 99.563 C 456 98.480, 450.317 99.013, 444.932 100.603 C 441.944 101.484, 435.900 103.930, 431.500 106.038 C 421.775 110.698, 411.816 120.172, 403.249 132.917 C 396.487 142.974, 395.598 141.979, 399.893 129.160 C 410.195 98.412, 436.289 73.868, 478.234 55.476 C 487.944 51.218, 509.844 43, 511.482 43 C 512.107 43, 513.491 42.339, 514.559 41.532 C 516.754 39.871, 517.289 39.948, 508.500 40.660 M 528 68.945 C 496.593 74.678, 471.070 90.884, 433.931 128.675 C 416.497 146.415, 403 161.342, 403 162.881 C 403 163.497, 404.085 164, 405.412 164 C 409.327 164, 421.989 161.355, 429.141 159.044 C 436.457 156.679, 439.468 153.939, 455.500 135.062 C 471.137 116.649, 486.164 101.244, 494 95.595 C 500.440 90.952, 512.853 85.034, 520.625 82.902 C 527.534 81.006, 530.224 80.837, 546.911 81.246 C 562.277 81.623, 566.458 82.052, 571.022 83.719 C 584.494 88.639, 586.635 90.289, 609.500 113.386 C 632.411 136.528, 638.787 142.015, 651.503 149.533 C 659.601 154.321, 675.237 160.863, 683.500 162.920 C 690.441 164.649, 713.123 168.988, 715.250 168.995 C 719.474 169.008, 716.263 167.291, 707.207 164.694 C 687.952 159.173, 667.117 150.329, 653.686 141.977 C 644.707 136.393, 635.283 128.150, 624.375 116.339 C 592.961 82.322, 588.004 78.244, 570.953 72.388 C 561.455 69.126, 559.592 68.828, 546.584 68.490 C 538.838 68.289, 530.475 68.494, 528 68.945 M 719.565 168.895 C 719.260 169.388, 719.684 170.048, 720.506 170.364 C 721.413 170.712, 722 170.361, 722 169.469 C 722 167.851, 720.437 167.483, 719.565 168.895 M 314.933 238.130 C 311.945 241.501, 309.044 244.764, 308.486 245.380 C 304.885 249.355, 300.839 255.334, 298.210 260.562 C 294.960 267.023, 293.147 274, 294.717 274 C 296.550 274, 304.898 267.855, 308.537 263.827 C 313.181 258.687, 316.658 251.154, 318.529 242.181 C 319.329 238.345, 320.261 234.485, 320.599 233.603 C 321.630 230.915, 320.592 231.745, 314.933 238.130 M 460 233.696 C 452.190 237.722, 450.009 249.123, 454.397 263 C 455.701 267.125, 457.332 274.544, 458.021 279.486 C 459.613 290.909, 461.920 296.390, 466.029 298.515 C 467.761 299.410, 474.155 300.997, 480.238 302.041 C 494.620 304.508, 499.617 306.238, 505.893 310.920 C 523.694 324.201, 528.080 346.954, 518.963 378.718 C 514.890 392.911, 510.093 404.842, 500.958 423.500 C 480.335 465.625, 450.473 507.478, 399.999 565 C 380.207 587.555, 371.977 598.661, 364.770 612.536 C 349.504 641.929, 345.777 675.711, 354.881 702.151 C 357.272 709.093, 362.404 719.953, 364.497 722.500 C 366.356 724.762, 366.438 726.026, 363.486 707 C 358.414 674.318, 365.619 641.089, 383.710 613.723 C 387.972 607.275, 407.733 585.427, 430.945 561.500 C 449.432 542.443, 477.816 509.588, 490.124 493 C 501.822 477.235, 524 443.014, 524 440.729 C 524 440.223, 524.818 438.614, 525.818 437.154 C 527.651 434.477, 534.934 418.169, 538.838 408 C 553.844 368.913, 554.622 326.767, 540.987 291.581 C 529.986 263.189, 510.658 244.404, 483.500 235.707 C 472.142 232.069, 464.436 231.410, 460 233.696 M 574.286 251.594 C 574.611 253.743, 575.686 259.550, 576.675 264.500 C 579.470 278.491, 579.230 315.195, 576.234 331.835 C 570.911 361.406, 563.851 382.857, 547.606 418.817 C 540.445 434.669, 527.400 460.525, 521.662 470.241 C 518.823 475.048, 515.739 480.398, 514.809 482.128 C 507.171 496.340, 488.123 523.883, 476.215 537.934 C 473.072 541.643, 466.675 549.301, 462 554.953 C 457.325 560.604, 447.087 572.636, 439.250 581.691 C 426.193 596.775, 423.799 600, 425.658 600 C 426.969 600, 441.031 588.894, 463.591 570.041 C 497.640 541.587, 517.159 522.266, 535.362 499 C 539.019 494.325, 542.372 490.050, 542.811 489.500 C 545.233 486.471, 564.877 459.012, 566.537 456.335 C 595.945 408.914, 611.757 376.812, 618.570 350.693 C 622.086 337.212, 623.027 316.257, 620.635 304.691 C 618.831 295.971, 614.064 284.961, 608.345 276.308 C 600.831 264.939, 583.755 249.701, 577.019 248.354 L 573.695 247.689 574.286 251.594 M 439.870 268.010 C 431.414 273.881, 416.991 281, 413.546 281.003 C 411.871 281.005, 406.622 280.015, 401.881 278.802 C 393.559 276.674, 393.169 276.659, 390.548 278.377 C 387.049 280.669, 385.243 285.108, 383.911 294.686 C 382.736 303.134, 380.586 308.201, 376.597 311.924 C 375.169 313.258, 374 314.720, 374 315.174 C 374 316.440, 382.434 316.149, 393.316 314.509 C 416.591 311, 435.524 295.228, 445.952 270.660 C 447.843 266.204, 447.926 263.923, 446.191 264.051 C 445.811 264.079, 442.967 265.860, 439.870 268.010 M 445.243 282.800 C 437.389 298.786, 427.087 308.427, 411 314.846 C 402.060 318.412, 387.045 321.965, 380.815 321.987 C 375.854 322.005, 372 323.587, 372 325.607 C 372 328.316, 375.869 333.756, 379.300 335.872 C 383.743 338.612, 397.510 343.519, 406.762 345.660 C 422.612 349.327, 445.770 347.275, 451.842 341.664 C 457.021 336.878, 456.675 333.402, 450.720 330.393 C 440.322 325.139, 440.570 319.035, 451.184 318.976 C 458.402 318.936, 463.298 317.331, 466.250 314.037 C 467.762 312.349, 469 310.076, 469 308.984 C 469 307.321, 468.311 306.995, 464.750 306.968 C 459.426 306.928, 457.561 305.522, 454.922 299.556 C 453.365 296.036, 452.682 291.890, 452.265 283.410 C 451.956 277.134, 451.432 272.022, 451.101 272.050 C 450.771 272.077, 448.134 276.915, 445.243 282.800 M 341.039 311.174 C 332.761 313.549, 325.958 321.860, 325.777 329.819 C 325.644 335.665, 327.921 339.866, 335.648 348.028 C 341.786 354.512, 343.126 357.494, 342.494 363.261 C 342.239 365.592, 341.838 370.425, 341.603 374 C 340.614 389.054, 330.214 416.960, 319.968 432.047 C 313.357 441.782, 301.827 453.281, 295.059 456.888 C 290.059 459.553, 287.245 460.252, 277.308 461.295 C 265.792 462.504, 265.500 462.595, 265.500 464.978 C 265.500 466.660, 266.589 468.144, 269 469.744 C 275.639 474.151, 276.400 475.031, 274.871 476.535 C 272.216 479.144, 261.433 483.819, 255.566 484.903 C 252.303 485.507, 247.015 486, 243.816 486 C 240.617 486, 238 486.413, 238 486.919 C 238 487.424, 241.686 490.011, 246.191 492.669 C 250.696 495.326, 257.622 500.650, 261.583 504.500 C 267.526 510.276, 269.066 512.450, 270.392 516.932 C 271.277 519.919, 272 524.081, 272 526.182 C 272 528.783, 272.445 530, 273.396 530 C 274.790 530, 278.602 526.097, 282.626 520.550 L 284.753 517.619 291.068 521.381 C 304.231 529.222, 322.262 533.253, 335.169 531.240 C 347.823 529.267, 362 523.925, 362 521.131 C 362 520.636, 355.992 520.056, 348.650 519.842 C 335.803 519.466, 335.047 519.323, 328.585 516.043 C 315.858 509.583, 310.644 502.128, 310.727 490.509 C 310.790 481.807, 312.066 476.952, 317.302 465.500 C 325.380 447.831, 337.225 430.349, 353.891 411.500 C 371.165 391.963, 379.380 386.175, 398.500 380.070 C 418.712 373.616, 433.095 365.932, 442.343 356.648 C 447.687 351.284, 447.529 349.182, 441.937 351.237 C 439.685 352.064, 432.811 352.500, 422 352.500 L 405.500 352.500 395 348.689 C 372.619 340.566, 366.914 334.959, 365.484 319.678 C 364.824 312.625, 364.511 311.765, 362.311 310.928 C 359.162 309.731, 345.517 309.889, 341.039 311.174 M 317.684 334.675 C 316.494 339.035, 315.958 342.490, 314.033 358.233 C 311.668 377.568, 309.918 385.964, 306.370 395 C 300.824 409.128, 294.625 418.327, 283.733 428.597 C 272 439.660, 258.727 447.917, 230.518 461.704 C 188.999 481.995, 179.024 488.157, 164.481 502.500 C 157.310 509.572, 151.471 517.916, 145.951 528.979 C 142.303 536.289, 140.040 543, 141.222 543 C 141.482 543, 143.402 539.737, 145.490 535.750 C 150.477 526.224, 154.594 520.653, 164.762 509.667 C 170.075 503.927, 171.647 504.552, 169.518 511.560 C 167.452 518.359, 165.792 537.036, 166.610 544.270 C 167.393 551.192, 168.434 550.186, 169.476 541.500 C 170.200 535.463, 172.586 527.441, 177.507 514.500 C 178.970 510.650, 180.564 505.025, 181.047 502 C 181.796 497.309, 182.536 495.967, 186.075 492.876 C 190.625 488.902, 200.348 483.285, 221 472.698 C 233.906 466.081, 237.292 464.282, 259 452.506 C 276.096 443.232, 285.963 436.004, 295.445 425.808 C 306.938 413.450, 312.878 401.901, 315.665 386.500 C 316.918 379.577, 319.325 334.073, 318.486 333.175 C 318.319 332.996, 317.958 333.671, 317.684 334.675 " stroke="none" fill="black" fill-rule="evenodd"/>
</svg>
